<svg width="97" height="88" viewBox="0 0 97 88" fill="none" xmlns="http://www.w3.org/2000/svg">
<path d="M3.72565 1.53411C3.72565 0.686852 4.41248 1.52588e-05 5.25974 1.52588e-05H10.5058C10.8689 1.52588e-05 11.1633 0.294374 11.1633 0.657483V1.15171C11.1633 1.51482 10.8689 1.80918 10.5058 1.80918H3.72565V1.53411Z" fill="white"/>
<path d="M3.72565 4.52295H9.65567C10.1553 4.52295 10.5603 4.92794 10.5603 5.42753C10.5603 5.92711 10.1553 6.33211 9.65567 6.33211H3.72565V4.52295Z" fill="white"/>
<path d="M4.32867 9.24684H10.2587C10.7583 9.24684 11.1633 9.65184 11.1633 10.1514C11.1633 10.651 10.7583 11.056 10.2587 11.056H5.64361C4.91739 11.056 4.32867 10.4673 4.32867 9.74107V9.24684Z" fill="white"/>
<path d="M3.72565 1.80914H5.73582V11.056H5.04058C4.31436 11.056 3.72565 10.4672 3.72565 9.74103V1.80914Z" fill="white"/>
<path d="M13.2237 1.05539H14.0376C14.6428 1.05539 15.1334 1.54599 15.1334 2.15117V3.1912H16.0799C16.8061 3.1912 17.3948 3.77992 17.3948 4.50614V4.77422H15.1334V8.34229C15.1334 8.92514 15.6059 9.39763 16.1887 9.39763H16.5182C17.0024 9.39763 17.3948 9.79011 17.3948 10.2743V11.056H15.6862C14.3262 11.056 13.2237 9.95354 13.2237 8.59356V4.77422H12.9445C12.4603 4.77422 12.0679 4.38174 12.0679 3.8976V3.1912H13.2237V1.05539Z" fill="white"/>
<path d="M18.4091 5.91988H25.9699V6.57734C25.9699 7.00097 25.6265 7.34439 25.2029 7.34439H18.4091V5.91988Z" fill="white"/>
<path d="M18.8474 4.60494C19.5307 3.44329 20.7559 2.70678 22.1024 2.64824L22.1429 2.64647C22.3562 2.6372 22.5699 2.64721 22.7813 2.67638L22.8746 2.68924C24.503 2.91386 25.7729 4.21226 25.9614 5.84529L25.97 5.91988V6.13903L23.888 5.91988L23.7784 5.37199C23.641 4.95979 23.3116 4.64023 22.8955 4.51538L22.6694 4.44755C22.5336 4.40681 22.3908 4.39433 22.25 4.4109C21.3095 4.52155 20.6007 5.31865 20.6007 6.26566V6.57734L20.6786 7.66905C20.6992 7.95716 20.8069 8.23221 20.9873 8.45776C21.0942 8.59134 21.221 8.70762 21.3633 8.80251L21.5585 8.93265C21.7199 9.04023 21.9095 9.09764 22.1034 9.09764H22.5888C22.9213 9.09764 23.2317 8.93148 23.4161 8.65485L23.4549 8.59672C23.5237 8.49353 23.5698 8.37691 23.5902 8.25458L23.6688 7.7827H25.8604L25.7674 8.38699C25.6851 8.92239 25.4498 9.4226 25.0899 9.82747C24.8747 10.0696 24.6192 10.2727 24.3348 10.4279L24.0042 10.6082C23.7108 10.7682 23.3872 10.8652 23.0542 10.893L22.2443 10.9605L22.0536 10.9543C20.2016 10.8946 18.6623 9.5087 18.4091 7.67312L18.3723 7.37867C18.2534 6.42746 18.4187 5.46235 18.8474 4.60494Z" fill="white"/>
<path d="M27.3945 4.60494C28.0778 3.44329 29.303 2.70678 30.6494 2.64824L30.69 2.64647C30.9033 2.6372 31.1169 2.64721 31.3284 2.67638L31.8611 2.74986C33.2213 2.93748 34.2694 4.04359 34.3834 5.41193C34.3963 5.56739 34.2737 5.70072 34.1177 5.70072H32.3255L32.2897 5.53974C32.1765 5.03016 31.7966 4.62161 31.2966 4.47161L31.2164 4.44755C31.0806 4.40681 30.9379 4.39433 30.7971 4.4109C29.8565 4.52155 29.1477 5.31865 29.1477 6.26566V6.57734L29.2257 7.66905C29.2463 7.95716 29.3539 8.23221 29.5344 8.45776C29.6412 8.59134 29.768 8.70762 29.9104 8.80251L30.1056 8.93265C30.267 9.04023 30.4566 9.09764 30.6505 9.09764H31.1358C31.4683 9.09764 31.7788 8.93148 31.9632 8.65485L32.0893 8.4657C32.1005 8.44887 32.108 8.42985 32.1114 8.4099C32.1717 8.04797 32.4848 7.7827 32.8517 7.7827H34.4075L34.3145 8.38699C34.2321 8.92239 33.9968 9.4226 33.637 9.82747C33.4217 10.0696 33.1663 10.2727 32.8818 10.4279L32.5513 10.6082C32.2579 10.7682 31.9343 10.8652 31.6012 10.893L30.7914 10.9605L30.6006 10.9543C28.7487 10.8946 27.2093 9.5087 26.9562 7.67312L26.9193 7.37867C26.8004 6.42746 26.9658 5.46235 27.3945 4.60494Z" fill="white"/>
<circle cx="28.5574" cy="38.2029" r="2.25867" fill="white"/>
<path d="M31.4866 31.9874C31.9863 31.4878 34.9423 25.3682 36.8115 21.4138C37.061 20.886 37.8091 20.8786 38.0702 21.4009L47.5554 40.3711" stroke="white" stroke-width="4.38312" stroke-linecap="round"/>
<path d="M31.6956 80.6787C30.1978 82.1765 30.1978 84.6048 31.6956 86.1026C33.1933 87.6003 35.6216 87.6003 37.1194 86.1025L31.6956 80.6787ZM37.1194 86.1025C37.5267 85.6952 37.7689 85.2665 37.8222 85.1746C37.927 84.9939 38.0182 84.8138 38.0906 84.6647C38.2379 84.3612 38.3966 83.9996 38.5565 83.6198C38.8804 82.8502 39.2844 81.8258 39.7368 80.6481C40.6446 78.2852 41.8009 75.1642 42.999 71.9327C45.4415 65.3442 47.9841 58.5038 49.1666 55.9812L42.2214 52.7256C40.8633 55.6227 38.1692 62.8944 35.8069 69.2664C34.6024 72.5151 33.4643 75.5865 32.5766 77.8974C32.1312 79.0566 31.7623 79.9895 31.4868 80.6439C31.347 80.976 31.2494 81.193 31.19 81.3155C31.1589 81.3794 31.1592 81.3741 31.1861 81.3278C31.2 81.3039 31.2379 81.2395 31.2979 81.1529C31.3449 81.085 31.479 80.8952 31.6956 80.6787L37.1194 86.1025Z" fill="url(#paint0_linear_14_98)"/>
<path d="M45.5844 54.5725L56.5064 77.6496C57.745 80.2666 55.8361 83.2819 52.9408 83.2819H48.2487" stroke="url(#paint1_linear_14_98)" stroke-width="7.67046" stroke-linecap="round"/>
<path d="M21.7243 64.0552C21.7243 69.6678 23.7886 82.657 14.3521 83.2985C4.9156 83.9399 3.53944 77.1513 4.03092 73.6768" stroke="url(#paint2_linear_14_98)" stroke-width="7.67046" stroke-linecap="round"/>
<circle cx="21.6965" cy="53.9151" r="5.04059" fill="#500A55"/>
<path d="M66.8425 81.9786V53.7789C66.8425 53.0892 67.7691 52.8646 68.0849 53.4777L75.939 68.7239C76.866 70.5234 79.3929 70.6457 80.4893 68.9441L91.1911 52.3359" stroke="url(#paint3_linear_14_98)" stroke-width="7.67046" stroke-linecap="round"/>
<path d="M91.3007 52.9934V77.1005C91.3007 80.4896 88.5534 83.2369 85.1644 83.2369V83.2369" stroke="url(#paint4_linear_14_98)" stroke-width="7.67046" stroke-linecap="round"/>
<path d="M91.3007 52.9934V77.1005C91.3007 80.4896 88.5534 83.2369 85.1644 83.2369V83.2369" stroke="url(#paint5_linear_14_98)" stroke-width="7.67046" stroke-linecap="round"/>
<path d="M55.5897 40.39V19.341C55.5897 18.8262 56.2813 18.6585 56.5171 19.1162L62.3485 30.4359C63.0472 31.7924 64.9584 31.8685 65.7628 30.572L72.9023 19.0651C73.0185 18.8777 73.3076 18.9601 73.3076 19.1807V40.39" stroke="white" stroke-width="4.38312" stroke-linecap="round"/>
<path d="M94 19.7267H80.4684" stroke="white" stroke-width="4.38312" stroke-linecap="round"/>
<path d="M80.4309 32.2186L80.4684 19.7267" stroke="white" stroke-width="4.38312" stroke-linecap="round"/>
<path d="M93.5795 38.5741H80.4302" stroke="white" stroke-width="4.38312" stroke-linecap="round"/>
<path d="M90.2924 29.5473H80.4683" stroke="white" stroke-width="4.38312" stroke-linecap="round"/>
<path d="M23.2524 38.3118L22.9631 38.8182L22.5315 39.2916C20.5827 41.3138 18.0276 42.6452 15.2537 43.084C12.4782 43.523 9.63535 43.0443 7.15668 41.7207C4.678 40.3971 2.69892 38.3009 1.51993 35.7502C0.340943 33.1996 0.026444 30.3339 0.624186 27.5883C1.22193 24.8427 2.69926 22.3671 4.83188 20.5374C6.96449 18.7077 9.6359 17.6239 12.4405 17.4505C15.2261 17.2783 17.138 17.9977 19.4978 19.5627C21.1802 20.6785 22.2294 22.2412 22.9261 24.1821C23.2812 25.1714 22.5512 26.2211 21.4362 26.3385C20.5619 26.4305 19.7847 25.901 19.6432 25.0856C19.5733 24.6831 19.5047 24.3001 19.3389 23.913C19.1703 23.5196 18.9093 23.1383 18.4746 22.7079C18.4176 22.6514 18.3543 22.6006 18.2875 22.5571C16.6245 21.4766 14.3973 20.7657 12.3999 20.8892C10.3545 21.0157 8.70177 22.007 7.19892 23.2964C5.66688 24.6108 4.60559 26.3892 4.17619 28.3616C3.74678 30.334 3.97271 32.3927 4.81967 34.225C5.66664 36.0573 7.08837 37.5632 8.86901 38.5141C10.6496 39.4649 12.6919 39.8088 14.6857 39.4934C16.6309 39.1858 18.5347 38.6177 19.9608 37.1369L20.0528 37.0414V36.9089V32.7888C20.0528 31.9052 20.769 31.1889 21.6526 31.1889C22.5362 31.1889 23.2524 31.9052 23.2524 32.7888V38.3118Z" fill="white" stroke="white" stroke-width="0.657468"/>
<path d="M21.2581 32.6569H19.5049" stroke="white" stroke-width="3.72565" stroke-linecap="round"/>
<defs>
<linearGradient id="paint0_linear_14_98" x1="40.0507" y1="54.3534" x2="40.0507" y2="83.3906" gradientUnits="userSpaceOnUse">
<stop stop-color="#500A55"/>
<stop offset="1" stop-color="#B116BB"/>
</linearGradient>
<linearGradient id="paint1_linear_14_98" x1="52.3782" y1="54.5725" x2="52.3782" y2="83.2819" gradientUnits="userSpaceOnUse">
<stop stop-color="#500A55"/>
<stop offset="1" stop-color="#B116BB"/>
</linearGradient>
<linearGradient id="paint2_linear_14_98" x1="12.9302" y1="64.0552" x2="12.9302" y2="83.3409" gradientUnits="userSpaceOnUse">
<stop stop-color="#500A55"/>
<stop offset="1" stop-color="#B116BB"/>
</linearGradient>
<linearGradient id="paint3_linear_14_98" x1="79.0168" y1="51.066" x2="79.0168" y2="81.9786" gradientUnits="userSpaceOnUse">
<stop stop-color="#500A55"/>
<stop offset="1" stop-color="#B116BB"/>
</linearGradient>
<linearGradient id="paint4_linear_14_98" x1="88.2325" y1="52.9934" x2="88.2325" y2="83.2369" gradientUnits="userSpaceOnUse">
<stop stop-color="#500A55"/>
<stop offset="1" stop-color="#B116BB"/>
</linearGradient>
<linearGradient id="paint5_linear_14_98" x1="88.2325" y1="52.9934" x2="88.2325" y2="83.2369" gradientUnits="userSpaceOnUse">
<stop stop-color="#500A55"/>
<stop offset="1" stop-color="#B116BB"/>
</linearGradient>
</defs>
</svg>
